<?xml version="1.0" encoding="iso-8859-1"?>
<!-- Uploaded to: SVG Repo, www.svgrepo.com, Generator: SVG Repo Mixer Tools -->
<svg fill="#fff" height="800px" width="800px" version="1.1" id="Layer_1" xmlns="http://www.w3.org/2000/svg" xmlns:xlink="http://www.w3.org/1999/xlink" 
	 viewBox="0 0 491.52 491.52" xml:space="preserve">
<g>
	<g>
		<path d="M450.258,386.478l-18.432-223.867c-2.437-23.982-12.513-45.261-27.238-62.239l23.593-50.79
			c4.772-10.24,0.307-22.426-9.933-27.197c-10.281-4.792-22.446-0.307-27.218,9.953l-19.558,42.045
			c-13.578-7.025-28.672-11.325-44.749-12.308C321.971,27.136,292.234,0,256.005,0c-36.004,0-65.618,26.788-70.635,61.44h-11.755
			c-17.531,0-33.894,4.342-48.701,11.428L99.477,30.433c-5.816-9.708-18.35-12.861-28.078-7.045
			c-9.687,5.816-12.861,18.391-7.025,28.099l27.361,45.691c-16.507,17.613-27.75,40.346-30.208,66.232L41.416,383.099
			c-2.642,27.709,6.595,55.419,25.313,76.001c18.719,20.603,45.425,32.42,73.257,32.42h216.105
			c26.706,0,51.098-10.383,68.649-29.245C443.274,442.388,452.327,415.56,450.258,386.478z M256.005,40.96
			c13.353,0,24.74,8.561,28.959,20.48h-57.917C231.266,49.521,242.652,40.96,256.005,40.96z M233.764,225.669l17.285-35.062
			l17.265,35.062h35.308l-26.296,35.369l8.274,34.734l-34.55-17.531l-34.57,17.531l8.274-34.734l-26.296-35.369H233.764z
			 M307.205,409.6h-122.88c-11.325,0-20.48-9.175-20.48-20.48c0-11.305,9.155-20.48,20.48-20.48h122.88
			c11.325,0,20.48,9.175,20.48,20.48C327.685,400.425,318.531,409.6,307.205,409.6z"/>
	</g>
</g>
</svg>